<svg height="511pt" viewBox="-96 0 511 511.99977" width="511pt" xmlns="http://www.w3.org/2000/svg"><path d="m88.890625 291.023438h141.425781c48.816406 0 88.390625 39.574218 88.390625 88.390624v132.585938h-318.207031v-132.585938c0-48.816406 39.574219-88.390624 88.390625-88.390624zm0 0" fill="#004d80"/><path d="m44.695312 414.769531h17.679688v97.230469h-17.679688zm0 0" fill="#003f69"/><path d="m150.765625 414.769531h17.675781v97.230469h-17.675781zm0 0" fill="#003f69"/><path d="m256.832031 414.769531h17.679688v97.230469h-17.679688zm0 0" fill="#003f69"/><path d="m186.121094 476.644531h17.675781v17.675781h-17.675781zm0 0" fill="#0071bc"/><path d="m97.730469 414.769531 17.675781-35.355469-44.195312-17.679687v-68.945313c1.8125-.386718 3.640624-.679687 5.480468-.882812l82.910156 167.058594zm0 0" fill="#0071bc"/><path d="m221.476562 414.769531-17.679687-35.355469 44.195313-17.679687v-68.945313c-1.808594-.386718-3.636719-.679687-5.480469-.882812l-82.910157 167.058594zm0 0" fill="#0071bc"/><path d="m141.925781 423.34375 17.675781 35.621094 17.679688-35.621094 65.160156-131.4375c-4.015625-.570312-8.066406-.867188-12.125-.882812h-141.425781c-4.0625.015624-8.117187.3125-12.136719.882812zm0 0" fill="#e6e6e6"/><path d="m141.925781 370.574219-8.839843-26.515625 26.515624-26.519532 26.519532 26.519532-8.839844 26.515625zm0 0" fill="#c1272d"/><path d="m177.28125 370.574219v52.769531l-17.679688 35.621094-17.675781-35.621094v-52.769531zm0 0" fill="#a42126"/><path d="m274.511719 78.886719v140.453125c0 23.441406-8.386719 46.109375-23.644531 63.90625-18.652344 21.769531-45.890626 34.296875-74.558594 34.292968h-33.410156c-28.667969.003907-55.90625-12.523437-74.558594-34.292968-15.257813-17.796875-23.644532-40.464844-23.644532-63.90625v-140.453125zm0 0" fill="#f2c09a"/><path d="m94.855469 283.246094c-15.257813-17.796875-23.644531-40.464844-23.644531-63.90625v-113.9375h-26.515626v113.9375c.003907 54.230468 43.96875 98.195312 98.203126 98.199218h26.515624c-28.667968.003907-55.902343-12.523437-74.558593-34.292968zm0 0" fill="#e8b894"/><g fill="#a67c52"><path d="m150.765625 220.3125h8.835937c9.765626 0 17.679688-7.917969 17.679688-17.679688v-35.355468h44.195312c4.882813 0 8.839844-3.957032 8.839844-8.839844s-3.957031-8.839844-8.839844-8.839844h-44.195312c-9.761719 0-17.679688 7.914063-17.679688 17.679688v35.355468h-8.835937c-4.882813 0-8.839844 3.957032-8.839844 8.839844 0 4.878906 3.957031 8.839844 8.839844 8.839844zm0 0"/><path d="m124.246094 184.953125c0 4.882813-3.957032 8.839844-8.839844 8.839844-4.878906 0-8.835938-3.957031-8.835938-8.839844 0-4.878906 3.957032-8.835937 8.835938-8.835937 4.882812 0 8.839844 3.957031 8.839844 8.835937zm0 0"/><path d="m212.636719 184.953125c0 4.882813-3.957031 8.839844-8.839844 8.839844-4.878906 0-8.835937-3.957031-8.835937-8.839844 0-4.878906 3.957031-8.835937 8.835937-8.835937 4.882813 0 8.839844 3.957031 8.839844 8.835937zm0 0"/><path d="m97.730469 167.277344h35.355469c4.882812 0 8.839843-3.957032 8.839843-8.839844s-3.957031-8.839844-8.839843-8.839844h-35.355469c-4.882813 0-8.839844 3.957032-8.839844 8.839844s3.957031 8.839844 8.839844 8.839844zm0 0"/></g><path d="m274.511719 149.597656h8.839843c14.644532 0 26.515626 11.871094 26.515626 26.519532 0 14.644531-11.871094 26.515624-26.515626 26.515624h-8.839843zm0 0" fill="#cc9c72"/><path d="m44.695312 202.632812h-8.839843c-14.644531 0-26.515625-11.871093-26.515625-26.515624 0-14.648438 11.871094-26.519532 26.515625-26.519532h8.839843zm0 0" fill="#cc9c72"/><path d="m168.441406 291.023438h-17.675781c-4.882813 0-8.839844-3.957032-8.839844-8.839844 0-4.882813 3.957031-8.839844 8.839844-8.839844h17.675781c4.882813 0 8.839844 3.957031 8.839844 8.839844 0 4.882812-3.957031 8.839844-8.839844 8.839844zm0 0" fill="#a67c52"/><path d="m239.15625 61.207031v61.875l35.355469 26.515625v-97.230468zm0 0" fill="#dcb13a"/><path d="m44.695312 78.886719v70.710937l35.355469-26.515625v-53.035156zm0 0" fill="#dcb13a"/><path d="m18.179688 64.566406c-.019532-35.636718 28.851562-64.5390622 64.488281-64.5585935 2.96875 0 5.933593.2031255 8.875.6093755l157.148437 21.699218c14.789063 2.042969 25.804688 14.675782 25.820313 29.601563-.003907 15.320312-11.585938 28.164062-26.828125 29.742187l-188.847656 19.542969c-20.230469 2.113281-38.34375-12.574219-40.457032-32.804687-.132812-1.273438-.199218-2.550782-.199218-3.832032zm0 0" fill="#f8cf26"/><path d="m44.695312 64.566406c.007813-30.710937 21.644532-57.171875 51.742188-63.277344l-4.894531-.671874c-35.300781-4.882813-67.875 19.777343-72.757813 55.078124-.40625 2.9375-.609375 5.902344-.605468 8.871094-.003907 20.34375 16.484374 36.835938 36.824218 36.835938 1.28125.003906 2.5625-.066406 3.832032-.199219l12.746093-1.324219c-15.863281-4.410156-26.855469-18.84375-26.886719-35.3125zm0 0" fill="#e8c224"/></svg>