<svg id="Capa_1" enable-background="new 0 0 510.027 510.027" height="512" viewBox="0 0 510.027 510.027" width="512" xmlns="http://www.w3.org/2000/svg"><g><path d="m423.392 95.971-26.301 14.43 37.566 68.471v61.155h30v-68.844z" fill="#0a1f33"/><circle cx="402.913" cy="92.459" fill="#4e5a61" r="38.256"/><path d="m340.014 235.007c0 1.67-.02 3.34-.07 5.02h-84.93l-10.871-60.152 10.871-67.417h34.66c32.19 30.9 50.34 75.799 50.34 122.549z" fill="#0a1f33"/><path d="m255.014 112.458v127.57h-84.54c-3.35-46.97 11.81-93.43 41.76-126.97l.55-.6z" fill="#4e5a61"/><path d="m86.279 95.971-41.265 75.212v68.844h30v-61.155l37.566-68.471z" fill="#4e5a61"/><circle cx="106.758" cy="92.459" fill="#7e8a95" r="38.256"/><path d="m465.014 245.027v11.391l-47.55 253.609h-162.45l-18.29-136.964 18.29-128.036z" fill="#724435"/><path d="m255.014 245.027v265h-162.45l-47.55-253.609v-11.391z" fill="#9a5e34"/><path d="m310.014 367.527c0 37.28-24.62 67.5-55 67.5l-7.26-86.688 7.26-48.312c30.38 0 55 30.22 55 67.5z" fill="#5f55ae"/><path d="m255.014 300.027v135c-30.38 0-55-30.22-55-67.5s24.62-67.5 55-67.5z" fill="#6e76e4"/><path d="m130.014 352.527h30v30h-30z" fill="#d6e9f8"/><path d="m350.014 352.527h30v30h-30z" fill="#b3d9ff"/><path d="m325.014 367.527c0 45.49-31.4 82.5-70 82.5l-7.26-15 7.26-15c17.38 0 32.2-14.63 37.71-35h-37.71l-7.26-14.103 7.26-15.897h38.85c-4.29-22.93-20.08-40-38.85-40l-7.26-15 7.26-15c38.6 0 70 37.01 70 82.5z" fill="#b3d9ff"/><path d="m270.494 112.458v127.569h-15.48l-7.26-60.152 7.26-67.417z" fill="#4e5a61"/><path d="m240.494 112.458h14.52v127.57h-14.52z" fill="#7e8a95"/><path d="m495.014 225.027v30h-240l-14.52-15 14.52-15z" fill="#b3d9ff"/><path d="m15.014 225.027h240v30h-240z" fill="#d6e9f8"/><g><path d="m319.332 64.318c0 21.593-10.635 40.708-26.96 52.376-10.523 7.522-23.424 11.955-37.358 11.955l-24.476-71.585 24.476-57.064c13.935 0 26.836 4.433 37.358 11.955 16.326 11.668 26.96 30.783 26.96 52.363z" fill="#c28678"/><path d="m255.014 0v128.65c-35.528 0-64.319-28.803-64.319-64.331 0-35.516 28.791-64.319 64.319-64.319z" fill="#d69a8b"/></g><path d="m255.014 315.027v-30c-38.6 0-70 37.01-70 82.5s31.4 82.5 70 82.5v-30c-17.38 0-32.2-14.63-37.71-35h37.71v-30h-38.85c4.29-22.93 20.08-40 38.85-40z" fill="#d6e9f8"/></g></svg>